<svg width="24" height="24" viewBox="0 0 24 24" fill="none" xmlns="http://www.w3.org/2000/svg">
<path fill-rule="evenodd" clip-rule="evenodd" d="M7.491 5.99212C7.491 5.79321 7.57002 5.60244 7.71067 5.46179C7.85132 5.32113 8.04209 5.24212 8.241 5.24212H20.241C20.4399 5.24212 20.6307 5.32113 20.7713 5.46179C20.912 5.60244 20.991 5.79321 20.991 5.99212C20.991 6.19103 20.912 6.3818 20.7713 6.52245C20.6307 6.6631 20.4399 6.74212 20.241 6.74212H8.241C8.04209 6.74212 7.85132 6.6631 7.71067 6.52245C7.57002 6.3818 7.491 6.19103 7.491 5.99212ZM7.49 11.9951C7.49 11.7962 7.56902 11.6054 7.70967 11.4648C7.85032 11.3241 8.04109 11.2451 8.24 11.2451H20.24C20.4389 11.2451 20.6297 11.3241 20.7703 11.4648C20.911 11.6054 20.99 11.7962 20.99 11.9951C20.99 12.194 20.911 12.3848 20.7703 12.5254C20.6297 12.6661 20.4389 12.7451 20.24 12.7451H8.24C8.04109 12.7451 7.85032 12.6661 7.70967 12.5254C7.56902 12.3848 7.49 12.194 7.49 11.9951ZM7.491 17.9941C7.491 17.7952 7.57002 17.6044 7.71067 17.4638C7.85132 17.3231 8.04209 17.2441 8.241 17.2441H20.241C20.4399 17.2441 20.6307 17.3231 20.7713 17.4638C20.912 17.6044 20.991 17.7952 20.991 17.9941C20.991 18.193 20.912 18.3838 20.7713 18.5244C20.6307 18.6651 20.4399 18.7441 20.241 18.7441H8.241C8.04209 18.7441 7.85132 18.6651 7.71067 18.5244C7.57002 18.3838 7.491 18.193 7.491 17.9941ZM2.24 3.74512C2.24 3.5462 2.31902 3.35544 2.45967 3.21479C2.60032 3.07413 2.79109 2.99512 2.99 2.99512H4.115C4.31391 2.99512 4.50468 3.07413 4.64533 3.21479C4.78598 3.35544 4.865 3.5462 4.865 3.74512V6.74512H5.24C5.43891 6.74512 5.62968 6.82413 5.77033 6.96479C5.91098 7.10544 5.99 7.2962 5.99 7.49512C5.99 7.69403 5.91098 7.8848 5.77033 8.02545C5.62968 8.1661 5.43891 8.24512 5.24 8.24512H2.99C2.79109 8.24512 2.60032 8.1661 2.45967 8.02545C2.31902 7.8848 2.24 7.69403 2.24 7.49512C2.24 7.2962 2.31902 7.10544 2.45967 6.96479C2.60032 6.82413 2.79109 6.74512 2.99 6.74512H3.365V4.49512H2.99C2.79109 4.49512 2.60032 4.4161 2.45967 4.27545C2.31902 4.1348 2.24 3.94403 2.24 3.74512ZM2.79 10.6021C2.64955 10.4615 2.57066 10.2709 2.57066 10.0721C2.57066 9.87337 2.64955 9.68274 2.79 9.54212C2.96339 9.36493 3.17019 9.22388 3.39845 9.12714C3.6267 9.0304 3.87188 8.97989 4.11978 8.97852C4.36769 8.97716 4.6134 9.02496 4.84271 9.11918C5.07202 9.2134 5.28036 9.35215 5.45569 9.52742C5.63103 9.70268 5.76986 9.91098 5.86416 10.1403C5.95847 10.3695 6.00637 10.6152 6.00509 10.8631C6.00382 11.111 5.9534 11.3562 5.85674 11.5845C5.76009 11.8128 5.61912 12.0197 5.442 12.1931L4.892 12.7431H5.242C5.44091 12.7431 5.63168 12.8221 5.77233 12.9628C5.91298 13.1034 5.992 13.2942 5.992 13.4931C5.992 13.692 5.91298 13.8828 5.77233 14.0234C5.63168 14.1641 5.44091 14.2431 5.242 14.2431H3.082C2.93356 14.2432 2.78843 14.1992 2.665 14.1167C2.54157 14.0343 2.44539 13.917 2.38864 13.7798C2.33188 13.6427 2.31711 13.4918 2.34619 13.3462C2.37528 13.2006 2.4469 13.067 2.552 12.9621L4.382 11.1321C4.44824 11.061 4.4843 10.967 4.48259 10.8699C4.48088 10.7727 4.44152 10.68 4.37281 10.6113C4.30411 10.5426 4.21141 10.5032 4.11426 10.5015C4.01711 10.4998 3.92309 10.5359 3.852 10.6021C3.78233 10.672 3.69957 10.7274 3.60845 10.7652C3.51733 10.803 3.41965 10.8225 3.321 10.8225C3.22235 10.8225 3.12467 10.803 3.03355 10.7652C2.94243 10.7274 2.85967 10.672 2.79 10.6021ZM2.24 15.7451C2.24 15.5462 2.31902 15.3554 2.45967 15.2148C2.60032 15.0741 2.79109 14.9951 2.99 14.9951H4.115C4.46313 14.9951 4.80439 15.0919 5.10057 15.2749C5.39675 15.4578 5.63616 15.7196 5.79197 16.0309C5.94778 16.3422 6.01384 16.6908 5.98277 17.0375C5.95169 17.3842 5.82469 17.7155 5.616 17.9941C5.82498 18.2728 5.95222 18.6041 5.98345 18.951C6.01468 19.2979 5.94867 19.6466 5.79283 19.9581C5.63698 20.2696 5.39746 20.5315 5.10111 20.7145C4.80476 20.8975 4.4633 20.9943 4.115 20.9941H2.99C2.79096 20.9941 2.60006 20.915 2.45932 20.7743C2.31857 20.6336 2.2395 20.4427 2.2395 20.2436C2.2395 20.0446 2.31857 19.8537 2.45932 19.7129C2.60006 19.5722 2.79096 19.4931 2.99 19.4931H4.115C4.21089 19.4925 4.30288 19.4551 4.37206 19.3887C4.44124 19.3223 4.48237 19.2319 4.48698 19.1362C4.49159 19.0404 4.45933 18.9465 4.39684 18.8737C4.33435 18.801 4.24638 18.755 4.151 18.7451H3.74C3.54109 18.7451 3.35032 18.6661 3.20967 18.5254C3.06902 18.3848 2.99 18.194 2.99 17.9951V17.9931C2.99 17.7942 3.06902 17.6034 3.20967 17.4628C3.35032 17.3221 3.54109 17.2431 3.74 17.2431H4.151C4.24638 17.2332 4.33435 17.1872 4.39684 17.1145C4.45933 17.0418 4.49159 16.9479 4.48698 16.8521C4.48237 16.7563 4.44124 16.6659 4.37206 16.5995C4.30288 16.5331 4.21089 16.4958 4.115 16.4951H2.99C2.79109 16.4951 2.60032 16.4161 2.45967 16.2754C2.31902 16.1348 2.24 15.944 2.24 15.7451Z" fill="black"/>
</svg>
