<svg width="24" height="24" viewBox="0 0 24 24" fill="none" xmlns="http://www.w3.org/2000/svg">
<path d="M12.623 15.5515C12.623 16.0359 12.2098 16.4286 11.7 16.4286C11.1901 16.4286 10.7769 16.0359 10.7769 15.5515C10.7769 15.0671 11.1901 14.6744 11.7 14.6744C12.2098 14.6744 12.623 15.0671 12.623 15.5515Z" fill="black"/>
<path fill-rule="evenodd" clip-rule="evenodd" d="M11.7 8.31561C10.8261 8.31561 10.0846 9.01326 10.0846 9.91315C10.0846 10.2764 9.77461 10.571 9.39226 10.571C9.00991 10.571 8.69995 10.2764 8.69995 9.91315C8.69995 8.32185 10.0248 7 11.7 7C13.3751 7 14.7 8.32185 14.7 9.91315C14.7 11.1682 13.88 12.2492 12.7135 12.6557C12.5986 12.6957 12.5052 12.757 12.4488 12.8166C12.396 12.8725 12.3923 12.9065 12.3923 12.9203C12.3923 13.2836 12.0823 13.5781 11.7 13.5781C11.3176 13.5781 11.0076 13.2836 11.0076 12.9203C11.0076 12.1102 11.6939 11.6097 12.2368 11.4205C12.8566 11.2045 13.3153 10.6177 13.3153 9.91315C13.3153 9.01326 12.5738 8.31561 11.7 8.31561Z" fill="black"/>
<path fill-rule="evenodd" clip-rule="evenodd" d="M3 11.75C3 6.91751 6.91751 3 11.75 3C16.5825 3 20.5 6.91751 20.5 11.75C20.5 16.5825 16.5825 20.5 11.75 20.5C6.91751 20.5 3 16.5825 3 11.75ZM11.75 4.5C7.74594 4.5 4.5 7.74594 4.5 11.75C4.5 15.7541 7.74594 19 11.75 19C15.7541 19 19 15.7541 19 11.75C19 7.74594 15.7541 4.5 11.75 4.5Z" fill="black"/>
</svg>
