<svg width="24" height="24" viewBox="0 0 24 24" fill="none" xmlns="http://www.w3.org/2000/svg">
<path d="M16.5 6V6.75M16.5 9.75V10.5M16.5 13.5V14.25M16.5 17.25V18M3.375 5.25C2.754 5.25 2.25 5.754 2.25 6.375V9.401C2.70675 9.66398 3.08612 10.0427 3.34992 10.4989C3.61371 10.9552 3.7526 11.473 3.7526 12C3.7526 12.527 3.61371 13.0448 3.34992 13.5011C3.08612 13.9573 2.70675 14.336 2.25 14.599V17.625C2.25 18.246 2.754 18.75 3.375 18.75H20.625C21.246 18.75 21.75 18.246 21.75 17.625V14.599C21.2933 14.336 20.9139 13.9573 20.6501 13.5011C20.3863 13.0448 20.2474 12.527 20.2474 12C20.2474 11.473 20.3863 10.9552 20.6501 10.4989C20.9139 10.0427 21.2933 9.66398 21.75 9.401V6.375C21.75 5.754 21.246 5.25 20.625 5.25H3.375Z" stroke="black" stroke-width="1.5" stroke-linecap="round" stroke-linejoin="round"/>
<path d="M8.06 9C6.94766 9 6 9.8604 6 10.9778C6 11.7487 6.34894 12.3977 6.8114 12.9353C7.27226 13.4711 7.86686 13.9208 8.40439 14.2972L9.33184 14.9467C9.4334 15.0178 9.5666 15.0178 9.66816 14.9467L10.5956 14.2972C11.1331 13.9208 11.7277 13.4711 12.1886 12.9353C12.6511 12.3977 13 11.7487 13 10.9778C13 9.8604 12.0523 9 10.94 9C10.3666 9 9.86206 9.27813 9.5 9.638C9.13794 9.27813 8.63339 9 8.06 9Z" fill="#DE1135"/>
</svg>
