<svg width="24" height="24" viewBox="0 0 24 24" fill="none" xmlns="http://www.w3.org/2000/svg">
<path fill-rule="evenodd" clip-rule="evenodd" d="M10.2496 21C9.17669 21 8.28172 20.203 8.18803 19.1641C7.99214 16.992 7.94257 14.8102 8.03946 12.6327C7.9225 12.6251 7.80557 12.6171 7.68866 12.6088L5.62284 12.4625C4.30247 12.3689 3.56437 10.9378 4.27721 9.85349C5.79748 7.54087 8.58402 4.95252 10.8771 3.35138C11.5481 2.88287 12.4519 2.88287 13.1229 3.35138C15.416 4.95252 18.2025 7.54087 19.7228 9.85349C20.4356 10.9378 19.6975 12.3689 18.3772 12.4625L16.3113 12.6088C16.1944 12.6171 16.0775 12.6251 15.9605 12.6327C16.0574 14.8102 16.0079 16.992 15.812 19.1641C15.7183 20.203 14.8233 21 13.7504 21H10.2496ZM10.1714 11.7459C10.0137 14.1552 10.0431 16.5727 10.2595 18.9779H13.7405C13.9569 16.5727 13.9863 14.1552 13.8286 11.7459C13.811 11.4758 13.9054 11.2101 14.0909 11.0082C14.2764 10.8064 14.5374 10.6852 14.8155 10.6719C15.2639 10.6504 15.7122 10.6238 16.1601 10.5921L17.6604 10.4858C16.3297 8.58058 14.6633 6.91673 12.7368 5.57156L12 5.05708L11.2632 5.57156C9.33666 6.91673 7.67035 8.58058 6.33958 10.4858L7.8399 10.5921C8.28784 10.6238 8.73606 10.6504 9.18449 10.6719C9.4626 10.6852 9.7236 10.8064 9.90909 11.0082C10.0946 11.2101 10.189 11.4758 10.1714 11.7459Z" fill="black"/>
</svg>
